<svg id="Layer_2" data-name="Layer 2" xmlns="http://www.w3.org/2000/svg" viewBox="0 0 193.47 240.01"><defs><style>.cls-1{fill:#27d8ca;}.cls-2{fill:#ef5050;}</style></defs><title>Doser_Logo</title><polygon class="cls-1" points="55.67 165.58 55.67 87.49 93.02 64.08 92.85 0 0 57.29 0.86 186.03 96.49 240.01 96.49 219.02 19.13 174.7 19.13 67.13 74.75 32.81 74.69 54.18 37.15 77.34 37.65 155.51 55.67 165.58"/><polygon class="cls-1" points="137.8 165.58 137.8 87.49 100.45 64.08 100.45 0.7 193.47 57.29 192.61 186.03 96.49 240.01 96.49 219.02 174.34 174.7 174.34 67.13 118.73 32.81 118.78 54.18 156.32 77.34 155.82 155.51 137.8 165.58"/><path class="cls-2" d="M110.65,106.79c11.4,0,18.26,11.37,13.71,20.49-4.19,8.42-27.82,27.4-27.82,27.4s-23.69-18.91-27.9-27.31c-4.58-9.11,2.24-20.51,13.64-20.53s14.2,9.09,14.2,9.09S99.25,106.81,110.65,106.79Z"/></svg>