<svg xmlns="http://www.w3.org/2000/svg" viewBox="0 0 178.35 48.12"><defs><style>.cls-1{fill:#fff;}.cls-2{fill:#ef5050;}</style></defs><title>Doser_header</title><g id="Layer_1" data-name="Layer 1"><polygon class="cls-1" points="145.81 31.11 145.81 19.02 151.59 15.4 151.57 5.48 137.19 14.35 137.32 34.28 152.13 42.64 152.13 39.39 140.15 32.53 140.15 15.87 148.76 10.56 148.75 13.87 142.94 17.45 143.02 29.56 145.81 31.11"/><polygon class="cls-1" points="158.52 31.11 158.52 19.02 152.74 15.4 152.74 5.59 167.14 14.35 167.01 34.28 152.13 42.64 152.13 39.39 164.18 32.53 164.18 15.87 155.57 10.56 155.58 13.87 161.39 17.45 161.31 29.56 158.52 31.11"/><path class="cls-2" d="M154.32,22a2.24,2.24,0,0,1,2.12,3.18c-.64,1.3-4.3,4.24-4.3,4.24s-3.67-2.93-4.32-4.23A2.24,2.24,0,0,1,149.93,22a2.21,2.21,0,0,1,2.2,1.41A2.21,2.21,0,0,1,154.32,22Z"/><path class="cls-1" d="M9.35,39.07v-30H20.81l6.46,6.46V39.07Zm10.8-6V17.31l-2.37-2.37H16.55V33.1Z"/><path class="cls-1" d="M30.54,39.07v-30H48.46v30Zm10.72-5.89V14.94H37.74V33.18Z"/><path class="cls-1" d="M51.73,19.07v-10H69.65V19.52h-7.2V14.94H58.93v3.51L69.65,29V39.07H51.73V28.6h7.2v4.58h3.52V29.66Z"/><path class="cls-1" d="M72.92,39.07v-30H90.84v5.89H80.12v6.13H89V27H80.12v6.22H90.84v5.89Z"/><path class="cls-1" d="M94.11,39.07v-30H112V19.93l-3.84,4.17L112,28.19V39.07h-7.2V28.27L103.52,27h-2.21V39.07Zm7.2-18h2.21l1.3-1.31V14.94h-3.51Z"/></g></svg>