<?xml version="1.0" encoding="utf-8"?>
<svg id="master-artboard" viewBox="0 0 2560 1600" xmlns="http://www.w3.org/2000/svg" width="2560px" height="1600px" xmlns:xlink="http://www.w3.org/1999/xlink"><defs><linearGradient id="Fade_to_Black_1" x1="1280" y1="1781" x2="1280" y2="496.89" gradientUnits="userSpaceOnUse"><stop offset="0" stop-color="#231f20"/><stop offset="0.06" stop-color="#231f20" stop-opacity="0.86"/><stop offset="0.33" stop-color="#231f20" stop-opacity="0.38"/><stop offset="0.63" stop-color="#231f20" stop-opacity="0.09"/><stop offset="1" stop-color="#231f20" stop-opacity="0"/></linearGradient><linearGradient id="Fade_to_Black_1-2" x1="2116.94" y1="457.78" x2="2116.94" y2="1438.53" xlink:href="#Fade_to_Black_1"/><linearGradient id="Fade_to_Black_1-3" x1="1230.52" y1="457.78" x2="1230.52" y2="1438.53" xlink:href="#Fade_to_Black_1"/><linearGradient id="Fade_to_Black_1-4" x1="1498.06" y1="457.78" x2="1498.06" y2="1438.53" xlink:href="#Fade_to_Black_1"/><linearGradient id="Fade_to_Black_1-5" x1="2210.47" y1="622.8" x2="2210.47" y2="1744.72" xlink:href="#Fade_to_Black_1"/><linearGradient id="Fade_to_Black_1-6" x1="999.51" y1="794.64" x2="999.51" y2="1682.85" xlink:href="#Fade_to_Black_1"/><linearGradient id="Fade_to_Black_1-7" x1="1280" y1="622.8" x2="1280" y2="1744.72" xlink:href="#Fade_to_Black_1"/><linearGradient id="Fade_to_Black_1-8" x1="1509.82" y1="1496.26" x2="1509.82" y2="1295.47" xlink:href="#Fade_to_Black_1"/><linearGradient id="Fade_to_Black_1-9" x1="1926.18" y1="1496.26" x2="1926.18" y2="1295.47" xlink:href="#Fade_to_Black_1"/><linearGradient id="Fade_to_Black_1-10" x1="1821.92" y1="1496.26" x2="1821.92" y2="1295.47" xlink:href="#Fade_to_Black_1"/><linearGradient id="Fade_to_Black_1-11" x1="1656.64" y1="1496.26" x2="1656.64" y2="1295.47" xlink:href="#Fade_to_Black_1"/><linearGradient id="Fade_to_Black_1-12" x1="1522.38" y1="646.19" x2="1522.38" y2="869.21" xlink:href="#Fade_to_Black_1"/><linearGradient id="Fade_to_Black_1-13" x1="1713.24" y1="646.19" x2="1713.24" y2="869.21" xlink:href="#Fade_to_Black_1"/><linearGradient id="Fade_to_Black_1-14" x1="1904.6" y1="646.19" x2="1904.6" y2="869.21" xlink:href="#Fade_to_Black_1"/><linearGradient id="Fade_to_Black_1-15" x1="1713.75" y1="351.78" x2="1713.75" y2="627.66" xlink:href="#Fade_to_Black_1"/><linearGradient id="Fade_to_Black_1-16" x1="1713.75" y1="1442.15" x2="1713.75" y2="1685.43" xlink:href="#Fade_to_Black_1"/></defs><title>Untitled-2</title><g id="Layer_1" data-name="Layer 1" transform="matrix(1, 0, 0, 1, 0, 0)" style="isolation: isolate;"><path d="M 0 0 H 2560 V 1600 H 0 V 0 Z" id="_Path_" data-name="&lt;Path&gt;" class="cls-2" style="fill: rgb(109, 110, 113);"/><path d="M 0 0 H 2560 V 1600 H 0 V 0 Z" id="_Path_2" data-name="&lt;Path&gt;" class="cls-3" style="fill: url('#Fade_to_Black_1');"/><path d="M 2343.409912109375 778 L 2311.239990234375 721.75 L 2336.52001953125 781.010009765625 L 2308.159912109375 793.4400024414062 L 2306 794.3900146484375 L 2305.070068359375 797.0499877929688 L 2281.72998046875 864.3699951171875 L 2262.7099609375 848 L 2272.780029296875 816 L 2257.070068359375 843.1500244140625 L 2236.02001953125 825.030029296875 L 2239.27001953125 782.5499877929688 L 2239.35009765625 781.530029296875 L 2238.550048828125 781.0800170898438 L 2197.800048828125 757.969970703125 L 2236.110107421875 783.1199951171875 L 2230 825.97998046875 L 2229.800048828125 827.3699951171875 L 2230.93994140625 828.489990234375 L 2278.1201171875 874.760009765625 L 2263.7099609375 916.3200073242188 L 2102.18994140625 985.0800170898438 L 2100.360107421875 875.3699951171875 L 2100.179931640625 865.1400146484375 L 2090.580078125 864.52001953125 L 1968.06005859375 856.6400146484375 L 1969.3900146484375 827.6599731445312 L 2021.4599609375 819.72998046875 L 2023.6400146484375 819.4000244140625 L 2023.18994140625 817.3800048828125 L 2017.77001953125 793.0800170898438 L 2036.43994140625 784.9099731445312 L 2017.2099609375 790.5700073242188 L 2011.0699462890625 763.0399780273438 L 2018.9300537109375 815.9199829101562 L 1969.75 819.8300170898438 L 1972.72998046875 754.8699951171875 L 1955.5400390625 855.8400268554688 L 1849.5400390625 849.02001953125 L 1783.030029296875 732.9500122070312 L 1843.8199462890625 854.5599975585938 L 1844.699951171875 856.3200073242188 L 1846.8699951171875 856.5800170898438 L 2055.719970703125 888.6099853515625 L 2048.010009765625 1500.6199951171875 L 2110.1298828125 1500.6199951171875 L 2102.85009765625 1024.8499755859375 L 2277.1298828125 934.4000244140625 L 2281.81005859375 931.97998046875 L 2282.93994140625 927.6900024414062 L 2315.830078125 802.7999877929688 L 2450.85009765625 730.9199829101562 L 2343.409912109375 778 Z" class="cls-4" style="fill: url('#Fade_to_Black_1-2');"/><path d="M 1229.800048828125 632.0800170898438 L 1229.5400390625 630.2899780273438 L 1221.6600341796875 575 L 1271.0799560546875 542.5499877929688 L 1218.510009765625 572.3599853515625 L 1217.47998046875 572.9500122070312 L 1217.5799560546875 574.260009765625 L 1221.780029296875 629.0700073242188 L 1194.6199951171875 652.4400024414062 L 1189.949951171875 644.3699951171875 L 1189.949951171875 671.1699829101562 L 1228.3299560546875 633.52001953125 L 1229.800048828125 632.0800170898438 Z" class="cls-5" style="fill: url('#Fade_to_Black_1-3');"/><path d="M 1720.3599853515625 660.010009765625 L 1583.6199951171875 668.7999877929688 L 1561.43994140625 538.5499877929688 L 1565.280029296875 622.3599853515625 L 1501.8299560546875 617.3099975585938 L 1511.969970703125 549.0900268554688 L 1504.050048828125 584.6099853515625 L 1479.239990234375 577.2999877929688 L 1503.3299560546875 587.8400268554688 L 1496.3399658203125 619.1900024414062 L 1495.75 621.7999877929688 L 1498.5799560546875 622.22998046875 L 1565.739990234375 632.4600219726562 L 1567.449951171875 669.8499755859375 L 1409.4000244140625 680.010009765625 L 1397.010009765625 680.7999877929688 L 1396.7900390625 694.010009765625 L 1394.4300537109375 835.5399780273438 L 1189.949951171875 748.5 L 1189.949951171875 781.1699829101562 L 1393.5699462890625 886.8499755859375 L 1384.1700439453125 1500.6199951171875 L 1464.3199462890625 1500.6199951171875 L 1454.3699951171875 711.0900268554688 L 1723.81005859375 669.77001953125 L 1726.5999755859375 669.4299926757812 L 1727.739990234375 667.1599731445312 L 1806.1700439453125 510.2699890136719 L 1720.3599853515625 660.010009765625 Z" class="cls-6" style="fill: url('#Fade_to_Black_1-4');"/><path id="_Path_3" data-name="&lt;Path&gt;" class="cls-7" d="M2300.93,1447.72l32.13-198.39A98.82,98.82,0,0,0,2251.31,1136h0A98.82,98.82,0,0,0,2138,1217.73L2105,1420.93l-13.95-2.26-4.5,27.78,7.81,1.26Z" style="fill: url('#Fade_to_Black_1-5');"/><path class="cls-8" d="M1097.84,1422.71l-27.42-169.29H884q.28,4.52,1,9.09l30,185.21h192.79l7.29-1.18-4.2-25.94Z" style="fill: url('#Fade_to_Black_1-6');"/><path class="cls-9" d="M1414.5,1409.41V1129.24A134.5,134.5,0,0,0,1280,994.74h0a134,134,0,0,0-90.05,34.6v224.09H1145.5v156h-19.23v38.31h307.46v-38.31Z" style="fill: url('#Fade_to_Black_1-7');"/><path class="cls-10" d="M2269.72,259.62a4.65,4.65,0,0,0-4.17,1.75c-3,3.63-7.2,5.6-12.4,6.08a9.81,9.81,0,0,1,1.45-5.72c.15-.28-.11-.58-.37-.43a9.22,9.22,0,0,1-3.34,1.2,1.58,1.58,0,0,1-.93-.17,9.21,9.21,0,0,1-2.72-2.29.29.29,0,0,0-.5.28,9.81,9.81,0,0,1-.63,5.87c-4.71-2.26-7.92-5.57-9.5-10a4.65,4.65,0,0,0-3.3-3.1c-11.7-2.63-20.71-.54-28.39,3.87a.48.48,0,0,0,.12.88c6.66.91,11,4.05,11.47,10.93a.43.43,0,0,0,.43.42c9.17-.31,15.42,2.87,15.24,13.73a.42.42,0,0,0,.65.38c5.22-3.67,9.57-2.76,13.14,2.3a.4.4,0,0,0,.56.1c5.11-3.5,9.5-2.83,13.11,2.43a.42.42,0,0,0,.74-.13c3.62-10.24,10.59-11,19.07-7.55a.43.43,0,0,0,.55-.25c2.83-6.28,8-7.71,14.56-6.24a.48.48,0,0,0,.42-.78C2289.32,266.34,2281.61,261.23,2269.72,259.62Z" style="fill: rgb(88, 89, 91);"/><path class="cls-10" d="M346.86,213.49a4.65,4.65,0,0,0-4.17,1.75c-3,3.63-7.2,5.6-12.4,6.08a9.81,9.81,0,0,1,1.45-5.72c.15-.28-.11-.58-.37-.43a9.22,9.22,0,0,1-3.34,1.2,1.58,1.58,0,0,1-.93-.17,9.21,9.21,0,0,1-2.72-2.29.29.29,0,0,0-.5.28,9.81,9.81,0,0,1-.63,5.87c-4.71-2.26-7.92-5.57-9.5-10a4.65,4.65,0,0,0-3.3-3.1c-11.7-2.63-20.71-.54-28.39,3.87a.48.48,0,0,0,.12.88c6.66.91,11,4.05,11.47,10.93a.43.43,0,0,0,.43.42c9.17-.31,15.42,2.87,15.24,13.73a.42.42,0,0,0,.65.38c5.22-3.67,9.57-2.76,13.14,2.3a.4.4,0,0,0,.56.1c5.11-3.5,9.5-2.83,13.11,2.43a.42.42,0,0,0,.74-.13c3.62-10.24,10.59-11,19.07-7.55a.43.43,0,0,0,.55-.25c2.83-6.28,8-7.71,14.56-6.24a.48.48,0,0,0,.42-.78C366.46,220.21,358.75,215.1,346.86,213.49Z" style="fill: rgb(88, 89, 91);"/><path class="cls-10" d="M1994.43,477.8c5.09-.78,9,.57,10.8,5.52a.33.33,0,0,0,.4.22c6.66-2.23,11.94-1.25,14.17,6.75a.32.32,0,0,0,.56.14c3-3.83,6.42-4.11,10.14-1.17a.31.31,0,0,0,.44,0c3-3.68,6.36-4.15,10.15-1.08a.32.32,0,0,0,.51-.26c.43-8.3,5.36-10.41,12.35-9.69a.33.33,0,0,0,.35-.3c.71-5.23,4.19-7.4,9.33-7.75a.37.37,0,0,0,.14-.67c-5.64-3.76-12.41-5.83-21.48-4.43a3.56,3.56,0,0,0-2.68,2.19,13.4,13.4,0,0,1-7.78,7.16,7.51,7.51,0,0,1-.18-4.51c.05-.24-.21-.4-.37-.24a7.06,7.06,0,0,1-2.19,1.61,1.21,1.21,0,0,1-.72.08,7.05,7.05,0,0,1-2.49-1.09c-.19-.13-.41.09-.3.31a7.51,7.51,0,0,1,.81,4.44,13.4,13.4,0,0,1-9.16-5.29,3.56,3.56,0,0,0-3.1-1.55c-9.16.62-15.31,4.11-20,9A.37.37,0,0,0,1994.43,477.8Z" style="fill: rgb(88, 89, 91);"/><path class="cls-10" d="M689,133.8c5.09-.78,9,.57,10.8,5.52a.33.33,0,0,0,.4.22c6.66-2.23,11.94-1.25,14.17,6.75a.32.32,0,0,0,.56.14c3-3.83,6.42-4.11,10.14-1.17a.31.31,0,0,0,.44,0c3-3.68,6.36-4.15,10.15-1.08a.32.32,0,0,0,.51-.26c.43-8.3,5.36-10.41,12.35-9.69a.33.33,0,0,0,.35-.3c.71-5.23,4.19-7.4,9.33-7.75a.37.37,0,0,0,.14-.67c-5.64-3.76-12.41-5.83-21.48-4.43a3.56,3.56,0,0,0-2.68,2.19,13.4,13.4,0,0,1-7.78,7.16,7.51,7.51,0,0,1-.18-4.51c.05-.24-.21-.4-.37-.24a7.06,7.06,0,0,1-2.19,1.61,1.21,1.21,0,0,1-.72.08,7.05,7.05,0,0,1-2.49-1.09c-.19-.13-.41.09-.3.31A7.51,7.51,0,0,1,721,131a13.4,13.4,0,0,1-9.16-5.29,3.56,3.56,0,0,0-3.1-1.55c-9.16.62-15.31,4.11-20,9A.37.37,0,0,0,689,133.8Z" style="fill: rgb(88, 89, 91);"/><path class="cls-10" d="M2158.66,656.63c6.81,2.52,10.65,6.85,9.52,14.2a.46.46,0,0,0,.35.54c9.74,1.82,15.57,6.64,12.84,18a.45.45,0,0,0,.59.55c6.36-2.64,10.73-.66,13.3,5.51a.43.43,0,0,0,.57.24c6.2-2.48,10.68-.75,13.25,5.63a.45.45,0,0,0,.81,0c6.22-9.94,13.75-9.15,21.87-3.48a.46.46,0,0,0,.63-.13c4.46-6,10.24-6.25,16.81-3.15a.52.52,0,0,0,.63-.73c-4.37-8.5-11.29-15.69-23.44-20.18a5,5,0,0,0-4.81.87c-4,3.11-8.9,4.21-14.5,3.5a10.59,10.59,0,0,1,2.87-5.68.32.32,0,0,0-.29-.54,10,10,0,0,1-3.8.48,1.71,1.71,0,0,1-.94-.39,10,10,0,0,1-2.32-3.05.32.32,0,0,0-.59.18,10.58,10.58,0,0,1-2,6c-4.43-3.49-7-7.73-7.66-12.79a5,5,0,0,0-2.75-4c-11.71-5.52-21.69-5.43-30.82-2.59A.52.52,0,0,0,2158.66,656.63Z" style="fill: rgb(88, 89, 91);"/><path class="cls-10" d="M1069.4,237c12.39-3.52,22.43-1.34,28.52,10.37a.82.82,0,0,0,1.07.41c15.85-7.59,29.26-6.8,37.29,12.39a.79.79,0,0,0,1.43.17c6.34-10.44,14.67-12.18,24.82-6a.76.76,0,0,0,1.06-.25c6.28-10.06,14.5-12.27,24.87-5.81a.79.79,0,0,0,1.2-.8c-1.5-20.75,10.1-27.5,27.68-27.89a.82.82,0,0,0,.77-.85c.15-13.2,8.12-19.67,20.77-22.13a.92.92,0,0,0,.14-1.7c-15.17-7.6-32.61-10.64-54.72-4.35a8.91,8.91,0,0,0-6,6.28c-2.54,8.69-8.34,15.36-17.1,20.19-1.75-3.07-2.23-6.87-1.84-11.15a.56.56,0,0,0-1-.48,17.66,17.66,0,0,1-4.95,4.67,3,3,0,0,1-1.75.42,17.66,17.66,0,0,1-6.52-1.93c-.52-.25-1,.36-.66.87,2.28,3.65,3.57,7.25,3.39,10.78-10-.36-18.18-3.69-24.37-10.3a8.91,8.91,0,0,0-8.17-2.9c-22.56,4.37-36.76,15-46.86,28.58A.92.92,0,0,0,1069.4,237Z" style="fill: rgb(88, 89, 91);"/><path class="cls-11" d="M1948.57,727.91a34.52,34.52,0,1,0-49.75-31c0,.55,0,1.1,0,1.65-51.4,17.23-104.89,17.91-185.11,6-80.22,12-133.71,11.28-185.11-6,0-.55,0-1.09,0-1.65a34.52,34.52,0,1,0-49.75,31c-9.46,200.15-94.57,479.4-162.81,772.71h795.25C2043.14,1207.31,1958,928.06,1948.57,727.91Z" style="fill: rgb(65, 64, 66);"/><path class="cls-12" d="M1576.41,918.29c-23.66,163.89-83.52,368.86-133.18,582.33h45.4C1523.85,1285.15,1567.72,1079.13,1576.41,918.29Z" style="fill: rgb(50, 49, 51);"/><path class="cls-12" d="M1866.88,982c21.07,145.94,74.38,328.48,118.6,518.58H1945C1913.68,1308.74,1874.62,1125.27,1866.88,982Z" style="fill: rgb(50, 49, 51);"/><path class="cls-12" d="M1797.13,1283.82c8.81,61,31.09,137.32,49.58,216.8h-16.9C1816.7,1420.4,1800.37,1343.7,1797.13,1283.82Z" style="fill: rgb(50, 49, 51);"/><path class="cls-12" d="M1689.93,1209.45c-11.83,81.94-41.76,184.43-66.59,291.17H1646C1663.65,1392.88,1685.59,1289.87,1689.93,1209.45Z" style="fill: rgb(50, 49, 51);"/><path class="cls-13" d="M1576.41,918.29c-23.66,163.89-83.52,368.86-133.18,582.33h45.4C1523.85,1285.15,1567.72,1079.13,1576.41,918.29Z" style="fill: url('#Fade_to_Black_1-8');"/><path class="cls-14" d="M1866.88,982c21.07,145.94,74.38,328.48,118.6,518.58H1945C1913.68,1308.74,1874.62,1125.27,1866.88,982Z" style="fill: url('#Fade_to_Black_1-9');"/><path class="cls-15" d="M1797.13,1283.82c8.81,61,31.09,137.32,49.58,216.8h-16.9C1816.7,1420.4,1800.37,1343.7,1797.13,1283.82Z" style="fill: url('#Fade_to_Black_1-10');"/><path class="cls-16" d="M1689.93,1209.45c-11.83,81.94-41.76,184.43-66.59,291.17H1646C1663.65,1392.88,1685.59,1289.87,1689.93,1209.45Z" style="fill: url('#Fade_to_Black_1-11');"/><path class="cls-10" d="M1923.44,586.6c-26.12-107-77-211.37-153.45-291.12-32.23-33.85-80.27-33.85-112.5,0C1581,375.24,1530.17,479.55,1504.05,586.6c-8.07,33.46,1.92,64.53,27.49,88,41,37.24,104.33,67,182.21,88.29,77.88-21.3,141.2-51,182.21-88.29C1921.53,651.13,1931.51,620.06,1923.44,586.6Z" style="fill: rgb(88, 89, 91);"/><g class="cls-17" style="mix-blend-mode: darken;"><path class="cls-18" d="M1527.89,689.61a34.48,34.48,0,0,0-11-18.67A193.4,193.4,0,0,0,1527.89,689.61Z" style="fill: url('#Fade_to_Black_1-12');"/><path class="cls-19" d="M1890.48,701.23c-48.9,14.61-100.86,14.62-176.73,3.31-76.4,11.39-128.55,11.3-177.74-3.62,38.28,50.56,96.63,101.9,174.76,126.73l2.6.8,2.6-.8C1793.91,802.87,1852.17,751.71,1890.48,701.23Z" style="fill: url('#Fade_to_Black_1-13');"/><path class="cls-20" d="M1900.05,687.77q5-7.71,9.09-15.46A34.48,34.48,0,0,0,1900.05,687.77Z" style="fill: url('#Fade_to_Black_1-14');"/></g><path class="cls-10" d="M1923.06,586.6c-26.12-107-77-211.37-153.45-291.12-32.23-33.85-80.27-33.85-112.5,0-76.49,79.76-127.33,184.08-153.45,291.12-8.07,33.46,1.92,64.53,27.49,88,41,37.24,104.33,67,182.21,88.29,77.88-21.3,141.2-51,182.21-88.29C1921.14,651.13,1931.13,620.06,1923.06,586.6Z" style="fill: rgb(88, 89, 91);"/><path class="cls-21" d="M1898.61,582.45c-10.68-40.86-25.37-70.28-46.46-90.82-21.08-20.87-48.55-32.86-84.56-46.47-30.15-10.27-77.54-10.27-107.69,0-36,13.61-63.48,25.6-84.56,46.47-21.09,20.54-35.78,50-46.46,90.82-6.51,25.24,1.31,59.25,23.58,83,35.65,38.87,92.78,58.27,161.28,70.81,68.5-12.54,125.64-31.94,161.28-70.81C1897.3,641.7,1905.12,607.69,1898.61,582.45Z" style="fill: rgb(48, 48, 48);"/><path class="cls-22" d="M1852.15,491.63c-21.08-20.87-48.55-32.86-84.56-46.47-30.15-10.27-77.54-10.27-107.69,0-36,13.61-63.48,25.6-84.56,46.47a133.09,133.09,0,0,0-20.48,25.9c-.17,2.94-.26,5.9-.26,8.88,0,52.54,26.2,99,66.41,127.52v18.51a30.91,30.91,0,0,0,30.91,30.91h0a30.92,30.92,0,0,0,29.94-23.19l1,.18v6a30.91,30.91,0,0,0,30.91,30.91h0a30.91,30.91,0,0,0,30.91-30.91v-6l1-.18a30.92,30.92,0,0,0,29.94,23.19h0a30.91,30.91,0,0,0,30.91-30.91V653.93c40.22-28.48,66.41-75,66.41-127.52,0-3-.09-5.94-.26-8.89A133.08,133.08,0,0,0,1852.15,491.63ZM1646,631.6h0a54,54,0,0,1-54-54h0a54,54,0,0,1,54-54h39.39a14.59,14.59,0,0,1,14.59,14.59v39.39A54,54,0,0,1,1646,631.6Zm87,3.93c-2.75,2.75-10,0-16.1-6.13-1.18-1.18-2.23,5.55-3.15,4.33-.91,1.22-2-5.51-3.15-4.33-6.14,6.14-13.35,8.88-16.1,6.13s0-10,6.13-16.1c4.44-4.44,9.45-7.11,12.92-7.2h.39c3.47.09,8.47,2.75,12.92,7.2C1733,625.57,1735.74,632.78,1733,635.53Zm102.53-57.91a54,54,0,0,1-108,0V538.23a14.59,14.59,0,0,1,14.59-14.59h39.39a54,54,0,0,1,54,54Z" style="fill: rgb(242, 242, 242);"/><path class="cls-12" d="M1781.55,523.65h-39.39a14.59,14.59,0,0,0-14.59,14.59v39.39a54,54,0,0,0,108,0h0A54,54,0,0,0,1781.55,523.65Z" style="fill: rgb(50, 49, 51);"/><path class="cls-12" d="M1699.93,538.23a14.59,14.59,0,0,0-14.59-14.59h-39.39a54,54,0,0,0-54,54h0a54,54,0,0,0,54,54h0a54,54,0,0,0,54-54Z" style="fill: rgb(50, 49, 51);"/><path class="cls-12" d="M1713.94,612.24h-.39c-3.47.09-8.47,2.75-12.92,7.2-6.14,6.14-8.88,13.35-6.13,16.1s10,0,16.1-6.13c1.18-1.18,2.23,5.55,3.15,4.33.91,1.22,2-5.51,3.15-4.33,6.14,6.14,13.35,8.88,16.1,6.13s0-10-6.13-16.1C1722.42,615,1717.41,612.32,1713.94,612.24Z" style="fill: rgb(50, 49, 51);"/><path class="cls-23" d="M1575.35,536.36c21.08-20.87,48.55-32.86,84.56-46.47,30.16-10.27,77.54-10.27,107.69,0,36,13.61,63.48,25.6,84.56,46.47,20.53,20,35,48.42,45.6,87.61,3.79-14.45,4.07-29,.86-41.51-10.68-40.86-25.37-70.28-46.46-90.82-21.08-20.87-48.55-32.86-84.56-46.47-30.15-10.27-77.54-10.27-107.69,0-36,13.61-63.48,25.6-84.56,46.47-21.09,20.54-35.78,50-46.46,90.82-3.21,12.46-2.93,27.06.86,41.51C1540.35,584.77,1554.81,556.36,1575.35,536.36Z" style="mix-blend-mode: darken; fill: url('#Fade_to_Black_1-15');"/><path class="cls-24" d="M2087.59,1600q12.09-49.32,23.79-99.38H1316.12q11.64,50,23.79,99.38Z" style="mix-blend-mode: darken; fill: url('#Fade_to_Black_1-16');"/><path d="M 1632.2900390625 1511.4300537109375 L 1405.9000244140625 89.94999694824219 L 1360.2099609375 97.25 L 1585.4300537109375 1511.4300537109375 L 1632.2900390625 1511.4300537109375 Z" class="cls-25" style="fill: rgb(140, 76, 70);"/><path d="M 1632.2900390625 1511.4300537109375 L 1405.9000244140625 89.94999694824219 L 1389.0699462890625 92.63999938964844 L 1615.02001953125 1511.4300537109375 L 1632.2900390625 1511.4300537109375 Z" class="cls-26" style="fill: rgb(112, 57, 54);"/><path class="cls-27" d="M1414.54,88.57l44,275.18c202-119.72,383.71-153,570.47-91.17C1857.35,162.11,1650.12,104.35,1414.54,88.57Z" style="fill: rgb(241, 242, 242);"/><path class="cls-28" d="M1937.68,249.87c-151-75.21-325-116.34-518-129.27l38.86,243.15C1627.46,263.6,1782.26,224,1937.68,249.87Z" style="fill: rgb(224, 224, 224);"/><path d="M 1368.719946 125.230003 H 1417.689947 A 7.4 7.4 0 0 1 1425.089947 132.630003 V 181.600004 A 7.4 7.4 0 0 1 1417.689947 189.000004 H 1368.719946 A 7.4 7.4 0 0 1 1361.319946 181.600004 V 132.630003 A 7.4 7.4 0 0 1 1368.719946 125.230003 Z" class="cls-29" transform="matrix(0.99, -0.16, 0.16, 0.99, -7.34, 221.85)" style="fill: rgb(221, 221, 221);"/><path class="cls-27" d="M1362.77,129.69a6.16,6.16,0,0,0-5.11,7.05l7.7,48.16,48.16-7.7a6.16,6.16,0,0,0,5.11-7.05l-7.7-48.16Z" style="fill: rgb(241, 242, 242);"/><path d="M 1392.790015 275.809998 H 1441.760015 A 7.4 7.4 0 0 1 1449.160015 283.209998 V 332.179998 A 7.4 7.4 0 0 1 1441.760015 339.579998 H 1392.790015 A 7.4 7.4 0 0 1 1385.390015 332.179998 V 283.209998 A 7.4 7.4 0 0 1 1392.790015 275.809998 Z" class="cls-29" transform="translate(-30.8 227.53) rotate(-9.08)" style="fill: rgb(221, 221, 221);"/><path class="cls-27" d="M1386.84,280.27a6.16,6.16,0,0,0-5.11,7.05l7.7,48.16,48.16-7.7a6.16,6.16,0,0,0,5.11-7.05l-7.7-48.16Z" style="fill: rgb(241, 242, 242);"/><path class="cls-30" d="M1423,197.16q-24.85-3-45.69,7.3l-2-12.21,45.69-7.3Z" style="fill: rgb(65, 64, 66); mix-blend-mode: darken; opacity: 0.2;"/><path class="cls-30" d="M1447.11,347.74q-24.85-3-45.69,7.3l-2-12.21,45.69-7.3Z" style="fill: rgb(65, 64, 66); mix-blend-mode: darken; opacity: 0.2;"/><path d="M 440.2200012207031 459.7699890136719 L 327.0199890136719 459.7699890136719 L 440.2200012207031 346.5799865722656 L 440.2200012207031 459.7699890136719 Z" class="cls-31" style="fill: rgb(241, 240, 242); opacity: 0.8;"/><path d="M 440.2200012207031 346.5799865722656 L 440.2200012207031 459.7699890136719 L 327.0199890136719 459.7699890136719 L 327.0199890136719 1253.4200439453125 L 1189.949951171875 1253.4200439453125 L 1189.949951171875 346.5799865722656 L 440.2200012207031 346.5799865722656 Z" class="cls-32" style="opacity: 0.2; fill: rgb(241, 240, 242);"/><text class="cls-33" transform="translate(415.58 846.73)" style="white-space: pre;  font-size: 73.7px;  letter-spacing: 0.03em;  fill: rgb(242, 241, 223);  font-family: 'OpenSans-Semibold','Open Sans';  font-weight: 700; ;  font-weight: OpenSans-Semibold,Open Sans">PAGE NOT FOUND!</text><text class="cls-34" transform="translate(420.62 926.39)" style="white-space: pre;  fill: rgb(65, 64, 66);  font-size: 36.73px;  font-family: 'OpenSans','Open Sans';  letter-spacing: 0.03em; ;  font-weight: OpenSans,Open Sans">OUR DEEPEST CONDOLENCES TO YOU</text><text class="cls-35" transform="translate(483.14 1001.41)" style="white-space: pre;  fill: rgb(242, 241, 223);  font-size: 25.57px;  letter-spacing: 0.03em;  font-family: 'OpenSans-Light','Open Sans'; ;  font-weight: OpenSans-Light,Open Sans">Sorry, the page you were looking doesn’t exist.<tspan x="25.02" y="40.92">Try other site or go back to previous page.</tspan></text><text class="cls-36" transform="translate(682.61 1194.06)" style="white-space: pre;  fill: rgb(65, 64, 66);  font-family: 'OpenSans-Light','Open Sans';  font-size: 15.39px;  letter-spacing: 0.02em; ;  font-weight: OpenSans-Light,Open Sans">www.loremipsum.com</text><text class="cls-37" transform="translate(410.54 736.72)" style="white-space: pre;  fill: rgb(242, 241, 223);  font-family: 'OpenSans-Semibold','Open Sans';  font-weight: 700;  font-size: 395.13px;  letter-spacing: 0.02em; ;  font-weight: OpenSans-Semibold,Open Sans">404</text><path d="M 685.580013 1088.810059 H 831.390018 A 34.939999 34.935001 0 0 1 866.330017 1123.74506 V 1123.74506 A 34.939999 34.935001 0 0 1 831.390018 1158.680061 H 685.580013 A 34.939999 34.935001 0 0 1 650.640015 1123.74506 V 1123.74506 A 34.939999 34.935001 0 0 1 685.580013 1088.810059 Z" class="cls-38" style="fill: rgb(242, 241, 223);"/><text class="cls-39" transform="translate(688.33 1134.69)" style="white-space: pre;  font-family: 'OpenSans-Semibold','Open Sans';  font-weight: 700;  font-size: 32.73px;  fill: rgb(43, 50, 54);  letter-spacing: 0.03em; ;  font-weight: OpenSans-Semibold,Open Sans">GO BACK</text></g></svg>